<!-- Check mark icon by Delapouite under CC BY 3.0 -->
<!-- https://game-icons.net/1x1/delapouite/check-mark.html -->
<svg xmlns="http://www.w3.org/2000/svg" viewBox="0 0 512 512" style="height: 512px; width: 512px;">
    <path d="M0 0h512v512H0z" fill="#000" fill-opacity="0"></path>
    <g class="" transform="translate(0,0)" style="touch-action: none;">
        <path d="M17.47 250.9C88.82 328.1 158 397.6 224.5 485.5c72.3-143.8 146.3-288.1 268.4-444.37L460 26.06C356.9 135.4 276.8 238.9 207.2 361.9c-48.4-43.6-126.62-105.3-174.38-137z" fill="#000" fill-opacity="1" filter="url(#shadow-1)"></path>
    </g>
    <g class="" transform="translate(50,29)" style="touch-action: none;">
        <g>
            <circle cx="128" cy="128" r="128" fill="#ffffff" fill-opacity="0"></circle>
            <circle stroke="#000000" stroke-opacity="1" fill="#ffffff" fill-opacity="0" stroke-width="18" cx="128" cy="128" r="101"></circle>
            <path fill="#000000" fill-opacity="1" d="M128 200.732a72.575 72.575 0 0 1-39.958-12.04l22.855-34.618c4.92 3.27 10.804 5.188 17.103 5.188 6.305 0 12.192-1.92 17.115-5.196l22.851 34.612A72.574 72.574 0 0 1 128 200.732zm0-60.132c-6.982 0-12.441-5.46-12.441-12.441 0-6.982 5.46-12.442 12.441-12.442 6.982 0 12.441 5.46 12.441 12.442 0 6.981-5.46 12.44-12.441 12.44zm-72.357-8.094a72.574 72.574 0 0 1-.217-4.347A72.574 72.574 0 0 1 95.581 63.32l18.528 37.056c-10.169 5.139-17.212 15.697-17.212 27.783 0 .627.025 1.248.063 1.867zm144.777-.006l-41.378-2.482c.037-.616.061-1.235.061-1.86 0-12.085-7.043-22.643-17.212-27.781l18.555-37.11a72.574 72.574 0 0 1 40.128 64.892 72.627 72.627 0 0 1-.154 4.341z"></path>
        </g>
    </g>
</svg>